simulation
nRows=49
nColumns=15
endheader
time  TH_x TH_y TH_z SC_y  SC_z  SC_x  AC_y  AC_z  AC_x  GH_y  GH_z  GH_yy  EL_x  PS_y
0.000000  0.000000  0.000000  0.000000  0.678314  -4.419646  -20.000000  53.371034  27.215393  -16.344772  20.810821  27.421792  -0.061623  16.901565  117.724862
0.000084  0.000000  0.000000  0.000000  0.678314  -4.419646  -15.000000  54.752265  23.165968  -19.587167  20.810821  27.421792  -0.061623  16.901565  117.724862
0.000168  0.000000  0.000000  0.000000  0.678314  -4.419646  -10.000000  55.851823  19.054118  -22.637554  20.810821  27.421792  -0.061623  16.901565  117.724862
0.000251  0.000000  0.000000  0.000000  0.678314  -4.419646  -5.000000  56.699716  14.894589  -25.539370  20.810821  27.421792  -0.061623  16.901565  117.724862
0.000335  0.000000  0.000000  0.000000  0.678314  -4.419646  0.000000  57.318523  10.699947  -28.330645  20.810821  27.421792  -0.061623  16.901565  117.724862
0.000419  0.000000  0.000000  0.000000  0.678314  -4.419646  5.000000  57.724395  6.481194  -31.045414  20.810821  27.421792  -0.061623  16.901565  117.724862
0.000503  0.000000  0.000000  0.000000  0.678314  -4.419646  10.000000  57.927731  2.248241  -33.715015  20.810821  27.421792  -0.061623  16.901565  117.724862
0.000586  0.000000  0.000000  0.000000  0.678314  -4.419646  15.000000  57.933737  -1.989552  -36.369132  20.810821  27.421792  -0.061623  16.901565  117.724862
0.000670  0.000000  0.000000  0.000000  0.678314  -4.419646  20.000000  57.742515  -6.223048  -39.036946  20.810821  27.421792  -0.061623  16.901565  117.724862
0.000754  0.000000  0.000000  0.000000  0.678314  -4.419646  25.000000  57.349281  -10.442959  -41.748087  20.810821  27.421792  -0.061623  16.901565  117.724862
0.000838  0.000000  0.000000  0.000000  0.678314  -4.419646  30.000000  56.743874  -14.639371  -44.533742  20.810821  27.421792  -0.061623  16.901565  117.724862
0.000921  0.000000  0.000000  0.000000  0.678314  -4.419646  35.000000  55.910551  -18.801380  -47.427763  20.810821  27.421792  -0.061623  16.901565  117.724862
0.001005  0.000000  0.000000  0.000000  0.678314  -4.419646  40.000000  54.827132  -22.916544  -50.467903  20.810821  27.421792  -0.061623  16.901565  117.724862
0.001089  0.000000  0.000000  0.000000  0.678314  -4.419646  45.000000  53.464106  -26.970250  -53.697207  20.810821  27.421792  -0.061623  16.901565  117.724862
0.001173  0.000000  0.000000  0.000000  0.678314  -4.419646  50.000000  51.783464  -30.944943  -57.165560  20.810821  27.421792  -0.061623  16.901565  117.724862
0.001256  0.000000  0.000000  0.000000  -2.887275  3.812427  -20.000000  47.578007  10.902088  1.142587  38.869093  4.320742  -17.410994  17.251499  125.569186
0.001340  0.000000  0.000000  0.000000  -2.887275  3.812427  -15.000000  48.112727  7.194306  -2.254783  38.869093  4.320742  -17.410994  17.251499  125.569186
0.001424  0.000000  0.000000  0.000000  -2.887275  3.812427  -10.000000  48.423323  3.461908  -5.596874  38.869093  4.320742  -17.410994  17.251499  125.569186
0.001508  0.000000  0.000000  0.000000  -2.887275  3.812427  -5.000000  48.515395  -0.282143  -8.912663  38.869093  4.320742  -17.410994  17.251499  125.569186
0.001591  0.000000  0.000000  0.000000  -2.887275  3.812427  0.000000  48.390595  -4.025244  -12.230580  38.869093  4.320742  -17.410994  17.251499  125.569186
0.001675  0.000000  0.000000  0.000000  -2.887275  3.812427  5.000000  48.046702  -7.754781  -15.579135  38.869093  4.320742  -17.410994  17.251499  125.569186
0.001759  0.000000  0.000000  0.000000  -2.887275  3.812427  10.000000  47.477484  -11.457687  -18.987405  38.869093  4.320742  -17.410994  17.251499  125.569186
0.001843  0.000000  0.000000  0.000000  -2.887275  3.812427  15.000000  46.672706  -15.120096  -22.485724  38.869093  4.320742  -17.410994  17.251499  125.569186
0.001926  0.000000  0.000000  0.000000  -2.887275  3.812427  20.000000  45.617977  -18.726847  -26.106141  38.869093  4.320742  -17.410994  17.251499  125.569186
0.002010  0.000000  0.000000  0.000000  -2.887275  3.812427  25.000000  44.294649  -22.261036  -29.882924  38.869093  4.320742  -17.410994  17.251499  125.569186
0.002094  0.000000  0.000000  0.000000  -2.887275  3.812427  30.000000  42.679787  -25.703491  -33.852857  38.869093  4.320742  -17.410994  17.251499  125.569186
0.002178  0.000000  0.000000  0.000000  -2.887275  3.812427  35.000000  40.746420  -29.032148  -38.055302  38.869093  4.320742  -17.410994  17.251499  125.569186
0.002261  0.000000  0.000000  0.000000  -2.887275  3.812427  40.000000  38.464167  -32.221466  -42.531771  38.869093  4.320742  -17.410994  17.251499  125.569186
0.002345  0.000000  0.000000  0.000000  -2.887275  3.812427  45.000000  35.800572  -35.241793  -47.324825  38.869093  4.320742  -17.410994  17.251499  125.569186
0.002429  0.000000  0.000000  0.000000  -2.887275  3.812427  50.000000  32.723667  -38.058925  -52.475573  38.869093  4.320742  -17.410994  17.251499  125.569186
0.002513  0.000000  0.000000  0.000000  -6.564790  -3.244439  -20.000000  52.419830  34.734184  -13.632984  4.814984  27.379437  12.529572  18.266886  126.735334
0.002597  0.000000  0.000000  0.000000  -6.564790  -3.244439  -15.000000  54.337917  30.719732  -17.177843  4.814984  27.379437  12.529572  18.266886  126.735334
0.002680  0.000000  0.000000  0.000000  -6.564790  -3.244439  -10.000000  55.902308  26.616738  -20.436017  4.814984  27.379437  12.529572  18.266886  126.735334
0.002764  0.000000  0.000000  0.000000  -6.564790  -3.244439  -5.000000  57.161526  22.444708  -23.466349  4.814984  27.379437  12.529572  18.266886  126.735334
0.002848  0.000000  0.000000  0.000000  -6.564790  -3.244439  0.000000  58.153347  18.219459  -26.318374  4.814984  27.379437  12.529572  18.266886  126.735334
0.002932  0.000000  0.000000  0.000000  -6.564790  -3.244439  5.000000  58.906591  13.954063  -29.034404  4.814984  27.379437  12.529572  18.266886  126.735334
0.003015  0.000000  0.000000  0.000000  -6.564790  -3.244439  10.000000  59.442506  9.659638  -31.651307  4.814984  27.379437  12.529572  18.266886  126.735334
0.003099  0.000000  0.000000  0.000000  -6.564790  -3.244439  15.000000  59.775862  5.345947  -34.202025  4.814984  27.379437  12.529572  18.266886  126.735334
0.003183  0.000000  0.000000  0.000000  -6.564790  -3.244439  20.000000  59.915662  1.021870  -36.716958  4.814984  27.379437  12.529572  18.266886  126.735334
0.003267  0.000000  0.000000  0.000000  -6.564790  -3.244439  25.000000  59.865665  -3.304168  -39.225117  4.814984  27.379437  12.529572  18.266886  126.735334
0.003350  0.000000  0.000000  0.000000  -6.564790  -3.244439  30.000000  59.624536  -7.623836  -41.755259  4.814984  27.379437  12.529572  18.266886  126.735334
0.003434  0.000000  0.000000  0.000000  -6.564790  -3.244439  35.000000  59.185791  -11.928512  -44.336972  4.814984  27.379437  12.529572  18.266886  126.735334
0.003518  0.000000  0.000000  0.000000  -6.564790  -3.244439  40.000000  58.537421  -16.208915  -47.001857  4.814984  27.379437  12.529572  18.266886  126.735334
0.003602  0.000000  0.000000  0.000000  -6.564790  -3.244439  45.000000  57.661398  -20.454620  -49.784743  4.814984  27.379437  12.529572  18.266886  126.735334
0.003685  0.000000  0.000000  0.000000  -6.564790  -3.244439  50.000000  56.532614  -24.653569  -52.725168  4.814984  27.379437  12.529572  18.266886  126.735334
0.003769  0.000000  0.000000  0.000000  -0.285445  -7.809241  -20.000000  63.064290  21.849635  2.232155  10.786203  28.499258  4.782634  20.779121  115.354182
0.003853  0.000000  0.000000  0.000000  -0.285445  -7.809241  -15.000000  63.860830  17.375749  -0.138768  10.786203  28.499258  4.782634  20.779121  115.354182
0.003937  0.000000  0.000000  0.000000  -0.285445  -7.809241  -10.000000  64.450359  12.875240  -2.396059  10.786203  28.499258  4.782634  20.779121  115.354182
0.004020  0.000000  0.000000  0.000000  -0.285445  -7.809241  -5.000000  64.851832  8.356100  -4.573422  10.786203  28.499258  4.782634  20.779121  115.354182
